<svg width="28" height="28" viewBox="0 0 28 28" fill="none" xmlns="http://www.w3.org/2000/svg">
<path d="M8.43828 14.9215C7.89688 14.9762 6.87695 15.2141 6.32188 15.7035C4.65391 17.1527 5.65195 19.8051 9.02891 19.8051C10.9922 19.8051 12.9527 18.5555 14.4922 16.5512C12.2992 15.4875 10.4426 14.7246 8.43828 14.9215ZM21.0301 16.7535C23.7672 17.6668 25.2602 17.9293 25.5883 17.9785C26.0282 16.6983 26.2518 15.3537 26.25 14C26.25 7.23516 20.7648 1.75 14 1.75C7.23516 1.75 1.75 7.23516 1.75 14C1.75 20.7648 7.23516 26.25 14 26.25C18.2629 26.25 22.0172 24.0707 24.2129 20.7676C22.1457 19.9527 18.3723 18.4434 16.3707 17.4836C14.4594 19.827 11.993 21.2516 9.43359 21.2516C5.10234 21.2516 3.63398 17.4754 5.68203 14.9898C6.12773 14.4484 6.89062 13.9316 8.06914 13.6391C9.91484 13.1879 12.8543 13.9207 15.6078 14.8258C16.1027 13.9152 16.5211 12.9145 16.8301 11.848H8.34258V10.9922H12.7176V9.45547H7.41836V8.59961H12.7176V6.40937C12.7176 6.40937 12.7176 6.04023 13.0922 6.04023H15.2305V8.59961H20.4723V9.45547H15.2332V10.9922H19.5098C19.0996 12.6629 18.4789 14.2023 17.6996 15.5531C18.9984 16.0207 20.1633 16.4637 21.0301 16.7535Z" fill="black" fill-opacity="0.45"/>
</svg>
