<svg width="347" height="157" viewBox="0 0 347 157" fill="none" xmlns="http://www.w3.org/2000/svg">
<path d="M169.402 75.7696V88.7391H179.875H190.395L190.258 86.0997L190.121 83.5058L183.2 83.3693L176.232 83.2328V80.7754V78.2725H182.38H188.528V75.7696V73.2667H182.38H176.232V70.7638V68.2609H183.063H189.894V65.5304V62.8H179.648H169.402V75.7696Z" fill="#313131"/>
<path d="M201.597 63.4371C195.495 65.6214 191.897 71.8104 193.036 78.1359C193.901 82.7322 196.451 86.0542 200.504 87.829C205.194 89.9223 209.794 89.4672 214.53 86.4182L217.262 84.6435L215.304 82.4136L213.346 80.2293L211.342 81.549C208.564 83.2782 206.697 83.5513 204.238 82.5956C199.275 80.7298 198.091 73.9493 202.007 70.2177C204.694 67.6693 208.655 67.7603 211.798 70.3997L213.255 71.6284L214.985 69.5806C215.941 68.4884 216.761 67.3052 216.761 67.0322C216.761 66.2585 213.847 64.3927 211.342 63.4826C208.929 62.6635 203.919 62.618 201.597 63.4371Z" fill="#313131"/>
<path d="M219.585 71.7649C219.767 81.9585 220.222 83.6423 223.273 86.3272C226.871 89.4672 233.61 90.0133 238.21 87.5104C242.809 85.0075 243.629 82.5501 243.629 71.1278V62.7999H240.213H236.798V71.2643C236.798 80.4568 236.525 81.731 234.202 82.7776C232.608 83.5057 229.876 83.3692 228.692 82.5501C226.597 81.0939 226.324 79.7741 226.324 70.9912V62.7999H222.863H219.402L219.585 71.7649Z" fill="#313131"/>
<path d="M169.857 113.95V129.241H171.451H173.045V124.462V119.684H178.282H183.518L186.706 124.462C189.894 129.195 189.939 129.241 191.761 129.241C193.901 129.241 194.038 129.559 189.712 123.325L186.706 119.047L187.936 118.41C191.897 116.408 193.81 112.767 193.4 108.034C193.127 104.212 191.533 101.8 188.3 100.161C186.16 99.0237 185.613 98.9782 177.963 98.8417L169.857 98.6597V113.95ZM186.979 103.119C189.393 104.894 190.121 106.35 190.121 109.217C190.121 112.266 189.211 113.859 186.661 115.361C185.34 116.134 184.293 116.271 179.192 116.271H173.272L173.136 109.081L172.999 101.845L179.374 102.027C184.93 102.164 185.886 102.3 186.979 103.119Z" fill="#313131"/>
<path d="M201.734 113.996V129.241H212.435H223.136V127.648V126.055H214.029H204.921V120.822V115.588L212.799 115.497L220.632 115.361L220.768 113.905L220.905 112.403L213.027 112.312L205.149 112.175L205.012 107.033L204.876 101.936H213.801H222.681V100.344V98.7507H212.207H201.734V113.996Z" fill="#313131"/>
<path d="M230.423 113.95V129.241H232.016H233.61V124.462V119.684H238.528C249.23 119.684 253.647 116.635 253.647 109.308C253.647 104.758 252.053 101.891 248.41 99.9794C246.816 99.1148 245.678 98.9783 238.528 98.8418L230.423 98.6597V113.95ZM247.226 103.074C250.368 104.94 251.507 109.855 249.412 112.858C247.545 115.679 245.951 116.271 239.439 116.453L233.61 116.59V109.217V101.845L239.667 102.027C244.676 102.118 245.951 102.3 247.226 103.074Z" fill="#313131"/>
<path d="M266.216 101.117C265.624 102.437 262.618 109.035 259.567 115.816C256.516 122.551 253.92 128.376 253.784 128.695C253.601 129.15 254.011 129.286 255.423 129.15L257.381 129.013L258.975 125.236L260.614 121.504L269.039 121.595L277.509 121.732L279.103 125.463L280.742 129.241H282.655H284.567L282.7 125.008C281.653 122.733 278.602 115.907 275.915 109.9L271.043 98.9783L269.175 98.8418C267.308 98.7052 267.263 98.7052 266.216 101.117ZM272.727 110.81L275.915 118.091L269.267 118.228C265.624 118.273 262.527 118.273 262.436 118.137C262.299 118.046 263.711 114.542 265.532 110.355C267.308 106.214 268.948 102.937 269.175 103.165C269.358 103.347 270.951 106.806 272.727 110.81Z" fill="#313131"/>
<path d="M289.622 113.996V129.241H291.444H293.265V113.996V98.7507H291.444H289.622V113.996Z" fill="#313131"/>
<path d="M302.373 113.95V129.241H304.194H306.016V124.462V119.684H311.207H316.398L319.45 124.462L322.501 129.241H324.504H326.508L323.047 124.235C319.905 119.639 319.358 118.319 320.679 118.319C321.681 118.319 324.277 115.952 325.096 114.314C326.872 110.765 326.645 106.032 324.55 102.983C324.003 102.164 322.546 100.935 321.271 100.252C319.04 99.0238 318.766 98.9783 310.706 98.8418L302.373 98.6597V113.95ZM319.085 102.846C321.59 103.984 322.865 106.032 322.865 108.99C322.865 111.948 321.681 114.132 319.404 115.315C317.947 116.089 316.581 116.317 311.845 116.453L306.016 116.59V109.263V101.936H311.617C316.125 101.936 317.537 102.118 319.085 102.846Z" fill="#313131"/>
<g filter="url(#filter0_d_3_3077)">
<path d="M41.4397 65.3939C41.4852 65.6214 44.5363 70.1721 48.2249 75.542L54.9645 85.3261L71.677 85.4626L88.3439 85.5536V75.3145V65.0753H64.8918C52.0045 65.0753 41.4397 65.2118 41.4397 65.3939Z" fill="#176DAC"/>
<path d="M12.6141 23.1177C13.0694 23.8003 16.2116 28.4421 19.5358 33.3568L25.6835 42.3218H57.0137H88.3438V32.0826V21.8435H50.0463H11.7488L12.6141 23.1177Z" fill="#176DAC"/>
<path d="M100.184 32.2646V42.7768H113.071H125.958L128.463 44.0055C132.652 46.1444 135.202 50.8771 134.474 55.2458C134.018 57.9762 131.651 61.4803 129.146 63.0275L126.915 64.3928L113.526 64.5293L100.184 64.6658V75.3145V85.9632L115.075 107.625L130.011 129.241H142.716H155.376L154.556 128.012C154.146 127.284 147.452 117.545 139.711 106.35C131.969 95.1557 125.776 85.7812 125.913 85.5536C126.095 85.2806 126.732 85.0986 127.415 85.0986C131.241 85.0986 138.618 82.0496 143.308 78.591C148.409 74.7684 153.144 67.4873 154.647 61.1162C155.512 57.2481 155.558 50.1945 154.647 46.3719C152.188 35.6322 144.31 27.2133 133.199 23.3452C129.556 22.1165 129.556 22.1165 114.893 21.9345L100.184 21.7525V32.2646Z" fill="#176DAC"/>
<path d="M69.2634 108.853C69.2634 109.172 70.4474 111.174 71.8591 113.313L74.4548 117.181L85.9759 117.318C92.2601 117.363 97.4515 117.272 97.4515 117.136C97.4515 116.59 92.8066 109.445 92.078 108.853C91.5315 108.444 88.4805 108.307 80.2836 108.307C71.7225 108.307 69.2179 108.444 69.2634 108.853Z" fill="#176DAC"/>
<path d="M74.1359 120.003C73.043 121.322 69.2178 127.739 69.2178 128.285C69.2178 128.649 71.5403 128.831 76.6405 128.876C90.4386 129.013 91.3949 129.013 92.169 128.376C93.353 127.375 97.5425 120.185 97.2237 119.684C97.0416 119.411 92.8065 119.229 85.8848 119.229C75.9119 119.229 74.7735 119.32 74.1359 120.003Z" fill="#176DAC"/>
</g>
<defs>
<filter id="filter0_d_3_3077" x="7.74884" y="21.7524" width="151.627" height="115.488" filterUnits="userSpaceOnUse" color-interpolation-filters="sRGB">
<feFlood flood-opacity="0" result="BackgroundImageFix"/>
<feColorMatrix in="SourceAlpha" type="matrix" values="0 0 0 0 0 0 0 0 0 0 0 0 0 0 0 0 0 0 127 0" result="hardAlpha"/>
<feOffset dy="4"/>
<feGaussianBlur stdDeviation="2"/>
<feComposite in2="hardAlpha" operator="out"/>
<feColorMatrix type="matrix" values="0 0 0 0 0 0 0 0 0 0 0 0 0 0 0 0 0 0 0.25 0"/>
<feBlend mode="normal" in2="BackgroundImageFix" result="effect1_dropShadow_3_3077"/>
<feBlend mode="normal" in="SourceGraphic" in2="effect1_dropShadow_3_3077" result="shape"/>
</filter>
</defs>
</svg>
