<svg width="16" height="14" viewBox="0 0 16 14" fill="none" xmlns="http://www.w3.org/2000/svg">
<path d="M15.4306 0.71405H0.573504C0.257432 0.71405 0.0020752 0.969407 0.0020752 1.28548V12.7141C0.0020752 13.0301 0.257432 13.2855 0.573504 13.2855H15.4306C15.7467 13.2855 16.0021 13.0301 16.0021 12.7141V1.28548C16.0021 0.969407 15.7467 0.71405 15.4306 0.71405ZM14.7164 2.69262V11.9998H1.28779V2.69262L0.794932 2.30869L1.49672 1.40691L2.261 2.00155H13.7449L14.5092 1.40691L15.211 2.30869L14.7164 2.69262V2.69262ZM13.7449 1.99976L8.00208 6.46405L2.25922 1.99976L1.49493 1.40512L0.793147 2.30691L1.286 2.69084L7.386 7.43369C7.56143 7.56998 7.77725 7.64396 7.9994 7.64396C8.22154 7.64396 8.43736 7.56998 8.61279 7.43369L14.7164 2.69262L15.2092 2.30869L14.5074 1.40691L13.7449 1.99976Z" fill="#1890FF"/>
</svg>
