<svg width="12" height="16" viewBox="0 0 12 16" fill="none" xmlns="http://www.w3.org/2000/svg">
<path d="M10.1445 -0.0359497H1.85874C1.22838 -0.0359497 0.715881 0.47655 0.715881 1.10691V14.8212C0.715881 15.4516 1.22838 15.9641 1.85874 15.9641H10.1445C10.7748 15.9641 11.2873 15.4516 11.2873 14.8212V1.10691C11.2873 0.47655 10.7748 -0.0359497 10.1445 -0.0359497ZM10.0016 14.6783H2.0016V1.24976H10.0016V14.6783ZM5.28731 12.8569C5.28731 13.0463 5.36257 13.228 5.49652 13.362C5.63047 13.4959 5.81216 13.5712 6.0016 13.5712C6.19104 13.5712 6.37272 13.4959 6.50667 13.362C6.64063 13.228 6.71588 13.0463 6.71588 12.8569C6.71588 12.6675 6.64063 12.4858 6.50667 12.3518C6.37272 12.2179 6.19104 12.1426 6.0016 12.1426C5.81216 12.1426 5.63047 12.2179 5.49652 12.3518C5.36257 12.4858 5.28731 12.6675 5.28731 12.8569Z" fill="#1890FF"/>
</svg>
